<mxfile host="app.diagrams.net" modified="2024-04-16T03:17:40.586Z" agent="Mozilla/5.0 (Windows NT 10.0; Win64; x64) AppleWebKit/537.36 (KHTML, like Gecko) Chrome/123.0.0.0 Safari/537.36" etag="guJZUcTg1IjziJQPpnvW" version="24.2.5" type="device">
  <diagram name="페이지-1" id="HUUheS3Nebh28G4zVUz_">
    <mxGraphModel dx="1288" dy="600" grid="1" gridSize="10" guides="1" tooltips="1" connect="1" arrows="1" fold="1" page="1" pageScale="1" pageWidth="827" pageHeight="1169" math="0" shadow="0">
      <root>
        <mxCell id="0" />
        <mxCell id="1" parent="0" />
        <mxCell id="PGZybPRMsgbDIDuGJHOv-1" value="DB접속" style="rounded=0;whiteSpace=wrap;html=1;" vertex="1" parent="1">
          <mxGeometry x="354" y="120" width="120" height="60" as="geometry" />
        </mxCell>
        <mxCell id="PGZybPRMsgbDIDuGJHOv-2" value="업데이트 페이지&amp;nbsp;&lt;div&gt;시작&lt;/div&gt;" style="strokeWidth=2;html=1;shape=mxgraph.flowchart.terminator;whiteSpace=wrap;" vertex="1" parent="1">
          <mxGeometry x="364" y="20" width="100" height="60" as="geometry" />
        </mxCell>
        <mxCell id="PGZybPRMsgbDIDuGJHOv-3" value="" style="endArrow=classic;html=1;rounded=0;exitX=0.5;exitY=1;exitDx=0;exitDy=0;exitPerimeter=0;" edge="1" parent="1" source="PGZybPRMsgbDIDuGJHOv-2">
          <mxGeometry width="50" height="50" relative="1" as="geometry">
            <mxPoint x="440" y="340" as="sourcePoint" />
            <mxPoint x="414" y="120" as="targetPoint" />
          </mxGeometry>
        </mxCell>
        <mxCell id="PGZybPRMsgbDIDuGJHOv-4" value="DB 접속&lt;div&gt;예외 발생&lt;/div&gt;" style="rhombus;whiteSpace=wrap;html=1;" vertex="1" parent="1">
          <mxGeometry x="374" y="230" width="80" height="80" as="geometry" />
        </mxCell>
        <mxCell id="PGZybPRMsgbDIDuGJHOv-5" value="" style="endArrow=classic;html=1;rounded=0;entryX=0.5;entryY=0;entryDx=0;entryDy=0;entryPerimeter=0;exitX=0.5;exitY=1;exitDx=0;exitDy=0;" edge="1" parent="1" source="PGZybPRMsgbDIDuGJHOv-4">
          <mxGeometry relative="1" as="geometry">
            <mxPoint x="450" y="600" as="sourcePoint" />
            <mxPoint x="414" y="350" as="targetPoint" />
          </mxGeometry>
        </mxCell>
        <mxCell id="PGZybPRMsgbDIDuGJHOv-6" value="NO" style="edgeLabel;resizable=0;html=1;;align=center;verticalAlign=middle;" connectable="0" vertex="1" parent="PGZybPRMsgbDIDuGJHOv-5">
          <mxGeometry relative="1" as="geometry" />
        </mxCell>
        <mxCell id="PGZybPRMsgbDIDuGJHOv-7" value="" style="endArrow=classic;html=1;rounded=0;exitX=0.5;exitY=1;exitDx=0;exitDy=0;" edge="1" parent="1">
          <mxGeometry width="50" height="50" relative="1" as="geometry">
            <mxPoint x="414" y="180" as="sourcePoint" />
            <mxPoint x="414" y="230" as="targetPoint" />
            <Array as="points" />
          </mxGeometry>
        </mxCell>
        <mxCell id="PGZybPRMsgbDIDuGJHOv-9" value="&amp;nbsp;파리미터&amp;nbsp;&lt;div&gt;존재&lt;/div&gt;" style="strokeWidth=2;html=1;shape=mxgraph.flowchart.decision;whiteSpace=wrap;" vertex="1" parent="1">
          <mxGeometry x="364" y="350" width="100" height="100" as="geometry" />
        </mxCell>
        <mxCell id="PGZybPRMsgbDIDuGJHOv-10" value="" style="endArrow=classic;html=1;rounded=0;exitX=0.73;exitY=0.79;exitDx=0;exitDy=0;exitPerimeter=0;entryX=0.5;entryY=0;entryDx=0;entryDy=0;" edge="1" parent="1" target="PGZybPRMsgbDIDuGJHOv-19">
          <mxGeometry relative="1" as="geometry">
            <mxPoint x="463.9999999999998" y="400" as="sourcePoint" />
            <mxPoint x="547" y="460" as="targetPoint" />
            <Array as="points">
              <mxPoint x="550" y="400" />
            </Array>
          </mxGeometry>
        </mxCell>
        <mxCell id="PGZybPRMsgbDIDuGJHOv-12" value="" style="endArrow=classic;html=1;rounded=0;entryX=0.5;entryY=0;entryDx=0;entryDy=0;entryPerimeter=0;" edge="1" parent="1">
          <mxGeometry relative="1" as="geometry">
            <mxPoint x="364" y="400" as="sourcePoint" />
            <mxPoint x="280" y="460" as="targetPoint" />
            <Array as="points">
              <mxPoint x="280" y="400" />
            </Array>
          </mxGeometry>
        </mxCell>
        <mxCell id="PGZybPRMsgbDIDuGJHOv-19" value="POST파라미터&lt;div&gt;획득&lt;/div&gt;" style="shape=parallelogram;perimeter=parallelogramPerimeter;whiteSpace=wrap;html=1;fixedSize=1;" vertex="1" parent="1">
          <mxGeometry x="490" y="460" width="120" height="60" as="geometry" />
        </mxCell>
        <mxCell id="PGZybPRMsgbDIDuGJHOv-22" value="" style="endArrow=classic;html=1;rounded=0;exitX=0.5;exitY=1;exitDx=0;exitDy=0;" edge="1" parent="1" source="PGZybPRMsgbDIDuGJHOv-73">
          <mxGeometry width="50" height="50" relative="1" as="geometry">
            <mxPoint x="240" y="490" as="sourcePoint" />
            <mxPoint x="270" y="550" as="targetPoint" />
            <Array as="points">
              <mxPoint x="270" y="540" />
            </Array>
          </mxGeometry>
        </mxCell>
        <mxCell id="PGZybPRMsgbDIDuGJHOv-24" value="" style="endArrow=classic;html=1;rounded=0;exitX=0.5;exitY=1;exitDx=0;exitDy=0;" edge="1" parent="1">
          <mxGeometry width="50" height="50" relative="1" as="geometry">
            <mxPoint x="549.6" y="520" as="sourcePoint" />
            <mxPoint x="549.6" y="570" as="targetPoint" />
            <Array as="points">
              <mxPoint x="549.6" y="570" />
            </Array>
          </mxGeometry>
        </mxCell>
        <mxCell id="PGZybPRMsgbDIDuGJHOv-26" value="" style="endArrow=none;html=1;rounded=0;" edge="1" parent="1">
          <mxGeometry width="50" height="50" relative="1" as="geometry">
            <mxPoint x="720" y="270" as="sourcePoint" />
            <mxPoint x="720" y="270" as="targetPoint" />
          </mxGeometry>
        </mxCell>
        <mxCell id="PGZybPRMsgbDIDuGJHOv-27" value="파라미터&lt;br&gt;에러발생" style="rhombus;whiteSpace=wrap;html=1;" vertex="1" parent="1">
          <mxGeometry x="510" y="570" width="80" height="80" as="geometry" />
        </mxCell>
        <mxCell id="PGZybPRMsgbDIDuGJHOv-30" value="" style="endArrow=classic;html=1;rounded=0;exitX=0.5;exitY=1;exitDx=0;exitDy=0;" edge="1" parent="1" source="PGZybPRMsgbDIDuGJHOv-27">
          <mxGeometry relative="1" as="geometry">
            <mxPoint x="400" y="630" as="sourcePoint" />
            <mxPoint x="550" y="700" as="targetPoint" />
          </mxGeometry>
        </mxCell>
        <mxCell id="PGZybPRMsgbDIDuGJHOv-31" value="NO" style="edgeLabel;resizable=0;html=1;;align=center;verticalAlign=middle;" connectable="0" vertex="1" parent="PGZybPRMsgbDIDuGJHOv-30">
          <mxGeometry relative="1" as="geometry" />
        </mxCell>
        <mxCell id="PGZybPRMsgbDIDuGJHOv-32" value="달력 생성" style="rounded=0;whiteSpace=wrap;html=1;" vertex="1" parent="1">
          <mxGeometry x="210" y="550" width="120" height="60" as="geometry" />
        </mxCell>
        <mxCell id="PGZybPRMsgbDIDuGJHOv-36" value="" style="endArrow=classic;html=1;rounded=0;exitX=0.5;exitY=1;exitDx=0;exitDy=0;" edge="1" parent="1" source="PGZybPRMsgbDIDuGJHOv-72">
          <mxGeometry relative="1" as="geometry">
            <mxPoint x="549.6" y="780" as="sourcePoint" />
            <mxPoint x="550" y="820" as="targetPoint" />
            <Array as="points" />
          </mxGeometry>
        </mxCell>
        <mxCell id="PGZybPRMsgbDIDuGJHOv-37" value="YES" style="edgeLabel;resizable=0;html=1;;align=center;verticalAlign=middle;" connectable="0" vertex="1" parent="PGZybPRMsgbDIDuGJHOv-36">
          <mxGeometry relative="1" as="geometry" />
        </mxCell>
        <mxCell id="PGZybPRMsgbDIDuGJHOv-38" value="화면에 출력" style="shape=document;whiteSpace=wrap;html=1;boundedLbl=1;" vertex="1" parent="1">
          <mxGeometry x="354" y="840" width="120" height="80" as="geometry" />
        </mxCell>
        <mxCell id="PGZybPRMsgbDIDuGJHOv-39" value="" style="endArrow=classic;html=1;rounded=0;entryX=0;entryY=0.5;entryDx=0;entryDy=0;exitX=0.497;exitY=0.872;exitDx=0;exitDy=0;exitPerimeter=0;entryPerimeter=0;" edge="1" parent="1" source="PGZybPRMsgbDIDuGJHOv-74" target="PGZybPRMsgbDIDuGJHOv-40">
          <mxGeometry width="50" height="50" relative="1" as="geometry">
            <mxPoint x="50" y="880" as="sourcePoint" />
            <mxPoint x="420" y="780" as="targetPoint" />
            <Array as="points">
              <mxPoint x="80" y="880" />
              <mxPoint x="80" y="980" />
            </Array>
          </mxGeometry>
        </mxCell>
        <mxCell id="PGZybPRMsgbDIDuGJHOv-40" value="업데이트 페이지&amp;nbsp;&lt;div&gt;종료&lt;/div&gt;" style="strokeWidth=2;html=1;shape=mxgraph.flowchart.terminator;whiteSpace=wrap;" vertex="1" parent="1">
          <mxGeometry x="364" y="950" width="100" height="60" as="geometry" />
        </mxCell>
        <mxCell id="PGZybPRMsgbDIDuGJHOv-41" value="" style="endArrow=classic;html=1;rounded=0;exitX=0.508;exitY=0.863;exitDx=0;exitDy=0;exitPerimeter=0;entryX=0.5;entryY=0;entryDx=0;entryDy=0;entryPerimeter=0;" edge="1" parent="1" source="PGZybPRMsgbDIDuGJHOv-38" target="PGZybPRMsgbDIDuGJHOv-40">
          <mxGeometry width="50" height="50" relative="1" as="geometry">
            <mxPoint x="370" y="920" as="sourcePoint" />
            <mxPoint x="420" y="870" as="targetPoint" />
          </mxGeometry>
        </mxCell>
        <mxCell id="PGZybPRMsgbDIDuGJHOv-42" value="" style="endArrow=none;html=1;rounded=0;entryX=1;entryY=0.5;entryDx=0;entryDy=0;" edge="1" parent="1" target="PGZybPRMsgbDIDuGJHOv-4">
          <mxGeometry width="50" height="50" relative="1" as="geometry">
            <mxPoint x="720" y="980" as="sourcePoint" />
            <mxPoint x="720" y="270" as="targetPoint" />
            <Array as="points">
              <mxPoint x="720" y="270" />
            </Array>
          </mxGeometry>
        </mxCell>
        <mxCell id="PGZybPRMsgbDIDuGJHOv-43" value="" style="endArrow=classic;html=1;rounded=0;entryX=1;entryY=0.5;entryDx=0;entryDy=0;entryPerimeter=0;" edge="1" parent="1" target="PGZybPRMsgbDIDuGJHOv-40">
          <mxGeometry width="50" height="50" relative="1" as="geometry">
            <mxPoint x="720" y="980" as="sourcePoint" />
            <mxPoint x="680" y="870" as="targetPoint" />
          </mxGeometry>
        </mxCell>
        <mxCell id="PGZybPRMsgbDIDuGJHOv-44" value="예외 메세지 출력" style="strokeWidth=2;html=1;shape=mxgraph.flowchart.document2;whiteSpace=wrap;size=0.25;" vertex="1" parent="1">
          <mxGeometry x="670" y="800" width="100" height="60" as="geometry" />
        </mxCell>
        <mxCell id="PGZybPRMsgbDIDuGJHOv-49" value="YES" style="edgeLabel;resizable=0;html=1;;align=center;verticalAlign=middle;" connectable="0" vertex="1" parent="1">
          <mxGeometry x="619.999693256616" y="269.99938367155886" as="geometry" />
        </mxCell>
        <mxCell id="PGZybPRMsgbDIDuGJHOv-50" value="" style="endArrow=none;html=1;rounded=0;exitX=1;exitY=0.5;exitDx=0;exitDy=0;" edge="1" parent="1">
          <mxGeometry width="50" height="50" relative="1" as="geometry">
            <mxPoint x="590" y="740" as="sourcePoint" />
            <mxPoint x="720" y="740" as="targetPoint" />
          </mxGeometry>
        </mxCell>
        <mxCell id="PGZybPRMsgbDIDuGJHOv-51" value="" style="endArrow=none;html=1;rounded=0;exitX=1;exitY=0.5;exitDx=0;exitDy=0;" edge="1" parent="1">
          <mxGeometry width="50" height="50" relative="1" as="geometry">
            <mxPoint x="590" y="609.6" as="sourcePoint" />
            <mxPoint x="720" y="609.6" as="targetPoint" />
          </mxGeometry>
        </mxCell>
        <mxCell id="PGZybPRMsgbDIDuGJHOv-55" value="YES" style="edgeLabel;resizable=0;html=1;;align=center;verticalAlign=middle;" connectable="0" vertex="1" parent="1">
          <mxGeometry x="649.999693256616" y="609.9993836715589" as="geometry" />
        </mxCell>
        <mxCell id="PGZybPRMsgbDIDuGJHOv-56" value="NO" style="edgeLabel;resizable=0;html=1;;align=center;verticalAlign=middle;" connectable="0" vertex="1" parent="1">
          <mxGeometry x="649.999693256616" y="739.9993836715589" as="geometry">
            <mxPoint x="-5" y="2" as="offset" />
          </mxGeometry>
        </mxCell>
        <mxCell id="PGZybPRMsgbDIDuGJHOv-58" value="" style="endArrow=classic;html=1;rounded=0;exitX=0.5;exitY=1;exitDx=0;exitDy=0;" edge="1" parent="1" source="PGZybPRMsgbDIDuGJHOv-32">
          <mxGeometry width="50" height="50" relative="1" as="geometry">
            <mxPoint x="226" y="640" as="sourcePoint" />
            <mxPoint x="270" y="640" as="targetPoint" />
            <Array as="points" />
          </mxGeometry>
        </mxCell>
        <mxCell id="PGZybPRMsgbDIDuGJHOv-59" value="DB에서 게시글 조회" style="rounded=0;whiteSpace=wrap;html=1;" vertex="1" parent="1">
          <mxGeometry x="210" y="640" width="120" height="60" as="geometry" />
        </mxCell>
        <mxCell id="PGZybPRMsgbDIDuGJHOv-60" style="edgeStyle=orthogonalEdgeStyle;rounded=0;orthogonalLoop=1;jettySize=auto;html=1;" edge="1" parent="1" target="PGZybPRMsgbDIDuGJHOv-61">
          <mxGeometry relative="1" as="geometry">
            <mxPoint x="270" y="700" as="sourcePoint" />
          </mxGeometry>
        </mxCell>
        <mxCell id="PGZybPRMsgbDIDuGJHOv-61" value="게시글 획득&lt;div&gt;예외 발생&lt;/div&gt;" style="rhombus;whiteSpace=wrap;html=1;" vertex="1" parent="1">
          <mxGeometry x="210" y="720" width="120" height="70" as="geometry" />
        </mxCell>
        <mxCell id="PGZybPRMsgbDIDuGJHOv-65" value="" style="endArrow=classic;html=1;rounded=0;exitX=1;exitY=0.5;exitDx=0;exitDy=0;entryX=0.5;entryY=0;entryDx=0;entryDy=0;" edge="1" parent="1" source="PGZybPRMsgbDIDuGJHOv-61" target="PGZybPRMsgbDIDuGJHOv-38">
          <mxGeometry relative="1" as="geometry">
            <mxPoint x="330" y="760" as="sourcePoint" />
            <mxPoint x="430" y="760" as="targetPoint" />
            <Array as="points">
              <mxPoint x="414" y="755" />
              <mxPoint x="414" y="800" />
            </Array>
          </mxGeometry>
        </mxCell>
        <mxCell id="PGZybPRMsgbDIDuGJHOv-66" value="NO" style="edgeLabel;resizable=0;html=1;;align=center;verticalAlign=middle;" connectable="0" vertex="1" parent="PGZybPRMsgbDIDuGJHOv-65">
          <mxGeometry relative="1" as="geometry">
            <mxPoint y="14" as="offset" />
          </mxGeometry>
        </mxCell>
        <mxCell id="PGZybPRMsgbDIDuGJHOv-68" value="" style="endArrow=classic;html=1;rounded=0;entryX=0.5;entryY=0;entryDx=0;entryDy=0;entryPerimeter=0;" edge="1" parent="1" target="PGZybPRMsgbDIDuGJHOv-44">
          <mxGeometry width="50" height="50" relative="1" as="geometry">
            <mxPoint x="720" y="280" as="sourcePoint" />
            <mxPoint x="850" y="490" as="targetPoint" />
          </mxGeometry>
        </mxCell>
        <mxCell id="PGZybPRMsgbDIDuGJHOv-72" value="게시글 작성 처리" style="rounded=0;whiteSpace=wrap;html=1;" vertex="1" parent="1">
          <mxGeometry x="490" y="700" width="120" height="60" as="geometry" />
        </mxCell>
        <mxCell id="PGZybPRMsgbDIDuGJHOv-73" value="GET 파라미터&lt;br&gt;획득" style="shape=parallelogram;perimeter=parallelogramPerimeter;whiteSpace=wrap;html=1;fixedSize=1;" vertex="1" parent="1">
          <mxGeometry x="210" y="460" width="120" height="60" as="geometry" />
        </mxCell>
        <mxCell id="PGZybPRMsgbDIDuGJHOv-74" value="예외 메세지 출력" style="strokeWidth=2;html=1;shape=mxgraph.flowchart.document2;whiteSpace=wrap;size=0.25;" vertex="1" parent="1">
          <mxGeometry x="30" y="800" width="100" height="60" as="geometry" />
        </mxCell>
        <mxCell id="PGZybPRMsgbDIDuGJHOv-75" value="" style="endArrow=classic;html=1;rounded=0;exitX=0;exitY=0.5;exitDx=0;exitDy=0;entryX=0.5;entryY=0;entryDx=0;entryDy=0;entryPerimeter=0;" edge="1" parent="1" source="PGZybPRMsgbDIDuGJHOv-61" target="PGZybPRMsgbDIDuGJHOv-74">
          <mxGeometry relative="1" as="geometry">
            <mxPoint x="270" y="730" as="sourcePoint" />
            <mxPoint x="370" y="730" as="targetPoint" />
            <Array as="points">
              <mxPoint x="80" y="755" />
            </Array>
          </mxGeometry>
        </mxCell>
        <mxCell id="PGZybPRMsgbDIDuGJHOv-76" value="YES" style="edgeLabel;resizable=0;html=1;;align=center;verticalAlign=middle;" connectable="0" vertex="1" parent="PGZybPRMsgbDIDuGJHOv-75">
          <mxGeometry relative="1" as="geometry" />
        </mxCell>
        <mxCell id="PGZybPRMsgbDIDuGJHOv-77" value="디테일 페이지로&lt;br&gt;이동" style="rounded=0;whiteSpace=wrap;html=1;" vertex="1" parent="1">
          <mxGeometry x="490" y="820" width="120" height="60" as="geometry" />
        </mxCell>
        <mxCell id="PGZybPRMsgbDIDuGJHOv-78" value="" style="endArrow=none;html=1;rounded=0;entryX=0.555;entryY=1.038;entryDx=0;entryDy=0;entryPerimeter=0;" edge="1" parent="1" target="PGZybPRMsgbDIDuGJHOv-77">
          <mxGeometry width="50" height="50" relative="1" as="geometry">
            <mxPoint x="557" y="980" as="sourcePoint" />
            <mxPoint x="580" y="890" as="targetPoint" />
          </mxGeometry>
        </mxCell>
      </root>
    </mxGraphModel>
  </diagram>
</mxfile>
